HIERARCHY
ROOT Hips
{
	OFFSET -3.958830 18.904000 13.208200
	CHANNELS 6 Xposition Yposition Zposition Zrotation Yrotation Xrotation 
	JOINT LHipJoint
	{
		OFFSET 0.000000 0.000000 0.000000
		CHANNELS 3 Zrotation Yrotation Xrotation
		JOINT LeftUpLeg
		{
			OFFSET 1.800000 -1.400000 0.085000
			CHANNELS 3 Zrotation Yrotation Xrotation
			JOINT LeftLeg
			{
				OFFSET 2.215000 -6.000000 0.000000
				CHANNELS 3 Zrotation Yrotation Xrotation
				JOINT LeftFoot
				{
					OFFSET 2.500000 -6.900000 0.000000
					CHANNELS 3 Zrotation Yrotation Xrotation
					JOINT LeftToeBase
					{
						OFFSET 0.200000 -0.500000 1.950000
						CHANNELS 3 Zrotation Yrotation Xrotation
						End Site
						{
							OFFSET 0.000000 0.000000 0.000000
						}
					}
				}
			}
		}
	}
	JOINT RHipJoint
	{
		OFFSET 0.000000 0.000000 0.000000
		CHANNELS 3 Zrotation Yrotation Xrotation
		JOINT RightUpLeg
		{
			OFFSET -1.800000 -1.400000 0.085000
			CHANNELS 3 Zrotation Yrotation Xrotation
			JOINT RightLeg
			{
				OFFSET -2.215000 -6.000000 0.000000
				CHANNELS 3 Zrotation Yrotation Xrotation
				JOINT RightFoot
				{
					OFFSET -2.500000 -6.900000 0.000000
					CHANNELS 3 Zrotation Yrotation Xrotation
					JOINT RightToeBase
					{
						OFFSET -0.200000 -0.500000 1.950000
						CHANNELS 3 Zrotation Yrotation Xrotation
						End Site
						{
							OFFSET 0.000000 0.000000 0.000000
						}
					}
				}
			}
		}
	}
	JOINT LowerBack
	{
		OFFSET 0.000000 0.000000 0.000000
		CHANNELS 3 Zrotation Yrotation Xrotation
		JOINT Spine
		{
			OFFSET -0.087000 1.940000 -0.288900
			CHANNELS 3 Zrotation Yrotation Xrotation
			JOINT Spine1
			{
				OFFSET 0.000000 1.950000 0.060000
				CHANNELS 3 Zrotation Yrotation Xrotation
				JOINT Neck
				{
					OFFSET 0.000000 0.000000 0.000000
					CHANNELS 3 Zrotation Yrotation Xrotation
					JOINT Neck1
					{
						OFFSET 0.000000 1.600000 0.340000
						CHANNELS 3 Zrotation Yrotation Xrotation
						JOINT Head
						{
							OFFSET 0.000000 1.667000 -0.240000
							CHANNELS 3 Zrotation Yrotation Xrotation
							End Site
							{
								OFFSET 0.000000 0.000000 0.000000
							}
						}
					}
				}
				JOINT LeftShoulder
				{
					OFFSET 0.000000 0.000000 0.000000
					CHANNELS 3 Zrotation Yrotation Xrotation
					JOINT LeftArm
					{
						OFFSET 2.700000 1.550000 -0.730000
						CHANNELS 3 Zrotation Yrotation Xrotation
						JOINT LeftForeArm
						{
							OFFSET 5.450000 0.000000 0.000000
							CHANNELS 3 Zrotation Yrotation Xrotation
							JOINT LeftHand
							{
								OFFSET 3.450000 0.000000 0.000000
								CHANNELS 3 Zrotation Yrotation Xrotation
								JOINT LeftHandIndex1
								{
									OFFSET 0.750000 0.000000 0.000000
									CHANNELS 3 Zrotation Yrotation Xrotation
									End Site
									{
										OFFSET 0.000000 0.000000 0.000000
									}
								}
							}
						}
					}
				}
				JOINT RightShoulder
				{
					OFFSET 0.000000 0.000000 0.000000
					CHANNELS 3 Zrotation Yrotation Xrotation
					JOINT RightArm
					{
						OFFSET -2.700000 1.550000 -0.730000
						CHANNELS 3 Zrotation Yrotation Xrotation
						JOINT RightForeArm
						{
							OFFSET -5.450000 0.000000 0.000000
							CHANNELS 3 Zrotation Yrotation Xrotation
							JOINT RightHand
							{
								OFFSET -3.450000 0.000000 0.000000
								CHANNELS 3 Zrotation Yrotation Xrotation
								JOINT RightHandIndex1
								{
									OFFSET -0.750000 0.000000 0.000000
									CHANNELS 3 Zrotation Yrotation Xrotation
									End Site
									{
										OFFSET 0.000000 0.000000 0.000000
									}
								}
							}
						}
					}
				}
			}
		}
	}
}
MOTION
Frames: 12
Frame Time: 0.016667
0.509880 16.498050 -2.752350 -1.745289 4.364750 -3.418307 -14.995724 13.255082 2.711477 2.122973 -0.396044 -4.447029 -3.602748 4.772005 11.065596 -0.871740 4.672682 3.336240 0.412220 0.306820 -0.007260 18.447555 -11.232994 2.859547 -0.328377 0.314511 -7.551028 4.898733 -4.497711 12.515101 0.004793 -4.328533 2.985737 0.659710 1.057700 0.290350 -4.161464 -0.924157 -7.198066 14.445838 -2.842657 15.084271 -8.120405 0.037889 7.538342 1.696469 -2.395493 -6.421511 -3.399095 1.498660 19.656455 -3.754670 -1.929170 -0.878080 4.524834 -6.715424 -1.882078 24.460140 -24.775702 -7.065225 59.665911 -3.666929 -5.045491 -4.783806 3.301954 -0.166740 0.845670 -0.639130 0.380060 -8.066206 8.742689 3.022834 -21.766313 8.586790 -8.256431 -68.611023 4.502854 -6.296565 2.035154 -2.490958 -0.449980 0.524560 0.139800 0.021770 
0.508870 16.502390 -2.773350 -1.619255 3.501333 -3.427289 -14.953055 13.236391 2.632227 1.840827 -0.766441 -6.149811 -3.230488 4.985716 14.572596 -0.909794 4.748231 3.283467 0.438530 0.344820 0.013520 18.479339 -11.358210 2.863388 -0.125778 0.349933 -7.984511 4.004720 -4.324820 13.002566 0.015019 -4.298370 2.991030 0.694470 1.060920 0.295790 -4.252359 -0.664928 -7.111648 14.607017 -2.312158 14.799963 -8.282791 0.400082 7.868294 1.736141 -2.469100 -5.835876 -3.397937 1.572243 19.388467 -4.059250 -1.799840 -1.018900 4.820507 -5.276968 -2.518096 20.491972 -27.396261 -5.329799 58.760397 -10.419840 -7.761555 -4.760343 3.277980 -0.178090 0.862740 -0.637080 0.382640 -8.468041 7.477881 2.578540 -19.305041 11.376342 -7.109311 -67.283607 11.588061 -10.066779 1.942816 -2.471324 -0.449180 0.538960 0.132870 0.017810 
0.511000 16.501030 -2.790710 -1.576783 2.561322 -2.945687 -14.913029 13.181131 2.585689 1.736628 -1.257220 -8.539199 -3.252162 5.376581 18.393823 -0.920149 4.927017 3.188905 0.445180 0.364560 0.010240 18.512514 -11.459653 2.866098 0.227537 0.494798 -8.939325 3.220422 -4.124766 13.513873 0.045639 -4.235419 3.010276 0.716750 1.073800 0.296140 -4.339362 -0.383033 -7.038043 14.735798 -1.690139 13.966360 -8.229788 0.744754 7.764052 1.769517 -2.447346 -5.212141 -3.272255 1.671764 19.327826 -4.272510 -1.651930 -0.724210 5.103395 -3.611399 -3.173467 15.588686 -29.942563 -2.889423 57.776415 -18.296032 -10.634461 -4.731639 3.255516 -0.198980 0.884360 -0.649330 0.384480 -8.836767 5.989056 2.040596 -16.081587 14.862651 -5.536936 -66.057967 19.478441 -13.883181 1.834469 -2.431502 -0.451100 0.546240 0.134790 0.019390 
0.506860 16.498480 -2.813330 -1.268967 1.554248 -2.620237 -14.911323 13.144829 2.613479 1.554811 -1.802002 -10.979148 -3.401357 5.984714 22.708047 -0.878413 5.295300 3.017401 0.451920 0.373540 0.016130 18.508607 -11.502043 2.843879 0.332529 0.655517 -9.841526 2.426063 -3.924005 14.040484 0.072113 -4.162813 3.027790 0.723680 1.071390 0.307390 -4.316853 -0.264673 -7.009592 13.895472 -0.985414 13.655846 -7.574671 1.156192 7.460188 1.804610 -2.394863 -4.740873 -3.148261 1.944208 19.403336 -4.483750 -1.251700 -0.470350 5.004667 -2.470024 -3.676556 11.004169 -31.430340 -0.486371 56.097400 -26.363765 -13.176396 -4.688823 3.232740 -0.209450 0.896930 -0.651050 0.380850 -8.780036 5.157875 1.593244 -13.305077 17.742656 -3.955128 -63.857293 27.846052 -17.198501 1.711220 -2.351420 -0.443440 0.534000 0.135800 0.014930 
0.500740 16.501390 -2.838110 -0.794495 0.897307 -2.278405 -14.944113 13.089546 2.713585 1.299843 -2.484054 -13.636153 -3.547023 6.756389 27.409203 -0.780917 5.835297 2.784259 0.448970 0.363490 0.035410 18.479275 -11.480172 2.795190 0.152763 0.799908 -10.731664 2.020396 -3.821204 14.450647 0.091551 -4.083048 3.044831 0.707410 1.050010 0.317780 -4.215671 -0.263552 -7.020504 12.472961 -0.256977 13.381693 -6.718984 1.632772 7.277920 1.978887 -2.177372 -4.511199 -2.831411 1.955535 19.810465 -4.905850 -0.761260 -0.244000 4.588248 -2.189656 -3.969646 7.193072 -32.012616 1.436470 53.035313 -34.735528 -15.105113 -4.612402 3.188038 -0.205840 0.895190 -0.639240 0.367130 -8.646638 5.083616 1.396636 -10.144778 19.422801 -2.583542 -60.298552 36.057712 -19.375812 1.583523 -2.231413 -0.431970 0.510220 0.132780 0.002930 
0.496590 16.506830 -2.857020 -0.411698 0.355333 -1.704129 -14.978480 12.957739 2.863216 1.181281 -3.277412 -16.471929 -3.794950 7.699908 32.187426 -0.618099 6.502226 2.509291 0.449870 0.356070 0.066970 18.465362 -11.422368 2.733629 -0.033101 0.933230 -11.664940 1.845636 -3.749262 14.596755 0.100223 -3.976986 3.072943 0.676800 1.006390 0.324640 -4.137851 -0.219896 -7.045809 11.251355 0.417762 12.545426 -6.104138 2.051276 7.220087 2.149812 -1.836312 -4.387664 -2.394298 1.916211 20.707412 -5.154540 -0.198930 -0.089390 3.687266 -2.946193 -3.970125 5.008761 -31.396880 2.504472 47.526483 -43.649586 -15.757949 -4.488514 3.151594 -0.195010 0.872110 -0.607610 0.355100 -8.014628 5.777083 1.225685 -7.254035 20.475932 -1.554796 -53.910506 44.515975 -19.718718 1.462048 -2.077777 -0.406600 0.475030 0.112230 -0.005880 
0.493420 16.515700 -2.875900 0.078086 0.049847 -1.321712 -15.034274 12.821319 3.050527 0.992999 -4.058437 -18.884845 -4.017321 8.667242 36.582111 -0.460866 7.216652 2.216900 0.458980 0.359450 0.111440 18.436722 -11.332709 2.650251 -0.387790 1.020298 -12.365421 1.775797 -3.745440 14.823343 0.091122 -3.885221 3.089643 0.654190 0.941830 0.325070 -4.013137 -0.247471 -7.089032 9.775816 1.029957 11.962713 -5.335469 2.457646 7.264771 2.379671 -1.428298 -4.356949 -1.872326 1.761196 21.701874 -5.606250 0.419960 -0.605850 2.590320 -4.429239 -3.847383 3.468544 -30.203653 3.016765 38.110225 -52.369942 -14.245737 -4.366243 3.170297 -0.154960 0.833710 -0.558480 0.334260 -7.273667 7.142652 1.112716 -4.609957 20.832017 -1.067604 -43.298100 52.143372 -17.311586 1.372968 -1.976329 -0.389160 0.449000 0.094450 -0.028810 
0.491970 16.524470 -2.893150 0.704803 -0.187376 -1.198983 -15.089335 12.717827 3.222553 0.602437 -4.690428 -20.533383 -4.053717 9.428823 40.043009 -0.330158 7.815048 1.979227 0.456610 0.353910 0.132120 18.402507 -11.256780 2.562784 -1.086706 1.038472 -12.765846 1.920550 -3.826057 15.010236 0.081611 -3.831722 3.098729 0.631990 0.890710 0.314680 -3.882986 -0.309132 -7.132316 8.229365 1.581119 11.715817 -4.654633 2.862094 7.527653 2.455427 -1.135848 -4.581027 -1.530446 1.681958 22.589212 -5.732400 0.814880 -1.238180 1.566474 -6.104083 -3.484595 1.736553 -29.009709 3.453557 25.007184 -57.893501 -9.533488 -4.300639 3.274713 -0.108540 0.794050 -0.520430 0.314290 -6.308652 8.787322 1.299983 -2.000557 20.683243 -0.721458 -29.625906 57.151830 -12.346041 1.366318 -1.993927 -0.384610 0.438170 0.091880 -0.048870 
0.495700 16.534840 -2.906710 1.118033 0.054152 -1.329484 -15.135738 12.713844 3.315491 0.101615 -5.044840 -21.149320 -3.569434 9.567009 41.896160 -0.251695 8.064720 1.876724 0.452810 0.341300 0.154090 18.361289 -11.205219 2.508754 -1.679587 1.009753 -12.868029 2.170390 -3.956359 15.267591 0.062108 -3.801083 3.101386 0.599400 0.836100 0.305770 -3.761581 -0.454428 -7.167025 7.117878 1.814628 11.798468 -3.986102 3.037393 8.103377 2.473570 -1.084374 -5.139195 -1.598461 1.404974 23.427119 -5.879080 0.878220 -1.910110 0.453256 -7.828257 -2.775602 -0.356362 -27.577012 3.707161 11.453564 -60.080113 -3.174870 -4.248323 3.358953 -0.058850 0.745260 -0.477190 0.296850 -5.164886 10.618437 1.843612 -0.255567 19.960356 -0.456267 -15.066962 59.659716 -5.850593 1.419471 -2.057187 -0.374900 0.424460 0.084720 -0.064100 
0.503420 16.541910 -2.912590 1.270851 0.604086 -1.258978 -15.158442 12.756981 3.334017 -0.429395 -5.143160 -21.185478 -2.848716 9.190051 42.062277 -0.232502 7.965084 1.908714 0.433620 0.305470 0.160730 18.333578 -11.187639 2.492527 -2.044119 1.027621 -13.140114 2.497493 -4.098916 15.621916 0.051629 -3.774519 3.108960 0.552280 0.797740 0.299090 -3.698596 -0.573210 -7.173750 6.543181 1.766822 11.529810 -3.571130 2.902369 8.721553 2.447296 -1.063906 -5.901475 -1.719740 1.250666 24.245275 -5.813730 0.880920 -2.130690 -0.816390 -9.570303 -1.738686 -2.233343 -25.521840 3.713049 -1.768210 -60.033362 3.637352 -4.209509 3.409706 -0.018880 0.703490 -0.446530 0.284260 -3.777510 12.348391 2.506319 1.453678 19.460706 -0.051669 -1.613139 59.525996 0.777850 1.489650 -2.090621 -0.366870 0.406930 0.081310 -0.072180 
0.516600 16.551360 -2.913970 1.103665 1.342048 -1.404794 -15.149887 12.879363 3.246649 -0.868519 -4.785269 -20.160664 -1.931553 8.305221 40.136497 -0.286875 7.435818 2.090283 0.419940 0.276800 0.179630 18.318609 -11.234059 2.529006 -2.066389 0.995877 -13.093384 2.634201 -4.188869 15.853339 0.027762 -3.738856 3.122046 0.500660 0.740440 0.285140 -3.701872 -0.652772 -7.164487 6.743395 1.502498 11.454579 -3.620512 2.628600 9.392243 2.516804 -1.042173 -6.762925 -1.860656 0.983386 25.283803 -5.737430 0.818150 -2.610800 -2.171478 -11.290417 -0.670163 -3.729922 -23.451001 3.491653 -13.312315 -58.156938 9.439292 -4.156402 3.413644 0.029460 0.644150 -0.401360 0.269440 -2.532678 13.943384 3.325636 3.522868 18.766940 0.159339 9.048494 58.059566 5.863777 1.563621 -2.068444 -0.352340 0.388050 0.067470 -0.081080 
0.535040 16.551460 -2.908630 0.749592 2.226651 -1.098563 -15.125025 13.004506 3.111948 -1.331175 -4.173840 -18.824776 -1.072687 7.190001 36.487562 -0.398739 6.644346 2.379826 0.399180 0.237890 0.177710 18.319559 -11.296870 2.590405 -1.827689 1.069983 -13.470264 2.759050 -4.243007 16.167452 0.027776 -3.710006 3.139341 0.454790 0.718590 0.283600 -3.756712 -0.669517 -7.115864 7.386708 1.204934 10.839700 -3.827636 2.282086 9.622476 2.569713 -1.027981 -7.383619 -1.949653 0.624053 25.835615 -5.677770 0.525250 -2.404920 -3.437353 -12.205938 0.128054 -5.583887 -21.986722 3.727981 -22.943082 -55.541241 13.816145 -4.145037 3.422341 0.046410 0.618690 -0.387610 0.263010 -1.380532 14.656603 3.947340 5.585769 18.067549 0.719183 18.678387 56.551395 10.141909 1.628899 -2.063598 -0.340100 0.366830 0.063780 -0.080980 
